HIERARCHY
ROOT Hips
{
	OFFSET 0.000000 0.000000 0.000000
	CHANNELS 6 Xposition Yposition Zposition Xrotation Yrotation Zrotation
	JOINT LeftUpLeg_virtual
	{
		OFFSET 0.000000 0.000000 0.000000
		CHANNELS 3 Xrotation Yrotation Zrotation
		JOINT LeftUpLeg
		{
			OFFSET 10.205400 -3.823500 0.155100
			CHANNELS 3 Xrotation Yrotation Zrotation
			JOINT LeftLeg
			{
				OFFSET 0.708757 -12.982077 0.567790
				CHANNELS 3 Xrotation Yrotation Zrotation
				JOINT LeftFoot
				{
					OFFSET -0.708756 -10.717838 -2.184338
					CHANNELS 3 Xrotation Yrotation Zrotation
					JOINT LeftToeBase
					{
						OFFSET 0.108149 -7.191104 7.560241
						CHANNELS 3 Xrotation Yrotation Zrotation
						JOINT LeftToe_End
						{
							OFFSET 0.070230 0.081724 4.490308
							CHANNELS 3 Xrotation Yrotation Zrotation
							End Site
							{
								OFFSET 0 0 0
							}
						}
					}
				}
			}
		}
	}
	JOINT RightUpLeg_virtual
	{
		OFFSET 0.000000 0.000000 0.000000
		CHANNELS 3 Xrotation Yrotation Zrotation
		JOINT RightUpLeg
		{
			OFFSET -10.205400 -3.823500 0.005500
			CHANNELS 3 Xrotation Yrotation Zrotation
			JOINT RightLeg
			{
				OFFSET -0.708756 -12.982134 0.610632
				CHANNELS 3 Xrotation Yrotation Zrotation
				JOINT RightFoot
				{
					OFFSET 0.708754 -10.717769 -1.945823
					CHANNELS 3 Xrotation Yrotation Zrotation
					JOINT RightToeBase
					{
						OFFSET -0.108140 -7.191069 7.372968
						CHANNELS 3 Xrotation Yrotation Zrotation
						JOINT RightToe_End
						{
							OFFSET -0.070227 0.081735 4.479403
							CHANNELS 3 Xrotation Yrotation Zrotation
							End Site
							{
								OFFSET 0 0 0
							}
						}
					}
				}
			}
		}
	}
	JOINT Spine_virtual
	{
		OFFSET 0.000000 0.000000 0.000000
		CHANNELS 3 Xrotation Yrotation Zrotation
		JOINT Spine
		{
			OFFSET 0.000000 6.876099 0.125700
			CHANNELS 3 Xrotation Yrotation Zrotation
			JOINT Spine1
			{
				OFFSET 0.000000 5.730043 0.104720
				CHANNELS 3 Xrotation Yrotation Zrotation
				JOINT Spine1_split
				{
					OFFSET 0.000000 5.730043 0.104720
					CHANNELS 3 Xrotation Yrotation Zrotation
					JOINT Spine2
					{
						OFFSET 0.000000 5.730043 0.104720
						CHANNELS 3 Xrotation Yrotation Zrotation
						JOINT Neck_virtual
						{
							OFFSET 0.000000 0.000000 0.000000
							CHANNELS 3 Xrotation Yrotation Zrotation
							JOINT Neck
							{
								OFFSET 0.000000 10.314075 0.188496
								CHANNELS 3 Xrotation Yrotation Zrotation
								JOINT Head
								{
									OFFSET 0.000000 7.643700 -2.377400
									CHANNELS 3 Xrotation Yrotation Zrotation
									JOINT HeadTop_End
									{
										OFFSET 0.000000 43.788605 -13.619600
										CHANNELS 3 Xrotation Yrotation Zrotation
										End Site
										{
											OFFSET 0 0 0
										}
									}
								}
							}
						}
						JOINT LeftShoulder_virtual
						{
							OFFSET 0.000000 0.000000 0.000000
							CHANNELS 3 Xrotation Yrotation Zrotation
							JOINT LeftShoulder
							{
								OFFSET 2.196100 4.412489 0.087492
								CHANNELS 3 Xrotation Yrotation Zrotation
								JOINT LeftShoulder_split
								{
									OFFSET 2.196100 4.412489 0.087492
									CHANNELS 3 Xrotation Yrotation Zrotation
									JOINT LeftArm
									{
										OFFSET 8.771219 -2.981674 -0.026999
										CHANNELS 3 Xrotation Yrotation Zrotation
										JOINT LeftForeArm
										{
											OFFSET 8.512804 0.000000 -0.000000
											CHANNELS 3 Xrotation Yrotation Zrotation
											JOINT LeftHand
											{
												OFFSET 18.484802 0.000000 -0.000000
												CHANNELS 3 Xrotation Yrotation Zrotation
												End Site
												{
													OFFSET 0 0 0
												}
											}
										}
									}
								}
							}
						}
						JOINT RightShoulder_virtual
						{
							OFFSET 0.000000 0.000000 0.000000
							CHANNELS 3 Xrotation Yrotation Zrotation
							JOINT RightShoulder
							{
								OFFSET -2.196100 4.412496 0.070690
								CHANNELS 3 Xrotation Yrotation Zrotation
								JOINT RightShoulder_split
								{
									OFFSET -2.196100 4.412496 0.070690
									CHANNELS 3 Xrotation Yrotation Zrotation
									JOINT RightArm
									{
										OFFSET -8.771282 -2.981682 -0.094208
										CHANNELS 3 Xrotation Yrotation Zrotation
										JOINT RightForeArm
										{
											OFFSET -8.494598 0.000000 0.000000
											CHANNELS 3 Xrotation Yrotation Zrotation
											JOINT RightHand
											{
												OFFSET -18.483803 0.000000 0.000001
												CHANNELS 3 Xrotation Yrotation Zrotation
												End Site
												{
													OFFSET 0 0 0
												}
											}
										}
									}
								}
							}
						}
					}
				}
			}
		}
	}
}
MOTION
Frames: 10
Frame Time: 0.03333333
0.228731 34.273964 -0.516831 0.000000 0.000000 0.000000 -3.094036 4.200227 -1.841015 -7.667248 9.934334 15.791749 21.159313 -7.093560 -1.637176 -14.232834 1.480316 -6.290909 0.365342 0.171239 -0.717642 0.000000 0.000000 0.000000 -3.403828 5.203286 -1.658647 -8.707317 -4.634977 -2.088811 17.097364 4.271585 0.010609 -4.292631 -0.073680 2.196545 -0.124633 0.413940 1.951583 0.000000 0.000000 0.000000 -3.512108 6.750161 -1.618613 11.379467 -0.425577 1.342690 2.616993 0.034689 -0.307328 0.314871 -1.699321 0.916243 0.000000 0.000000 0.000000 -4.511246 -0.149386 0.279362 0.099244 -0.983054 0.567980 7.282978 -2.979791 -1.706012 0.000000 0.000000 0.000000 -4.748245 -0.454468 0.293652 0.195193 -3.996856 -7.931690 -1.135137 -0.830662 0.630804 6.608304 -1.179557 -73.480090 5.184882 -8.182565 3.428577 0.000000 0.000000 0.000000 -5.481591 -0.653852 0.392779 0.962549 8.400582 6.000953 -3.975868 -0.850367 -0.033150 4.845269 12.239365 75.825113 16.459851 18.278320 -3.894480 0.000000 0.000000 0.000000 
0.322413 34.312057 -0.550242 0.000000 0.000000 0.000000 -2.957262 4.175351 -1.799036 -7.473507 9.798982 15.542442 21.106323 -6.850874 -1.666334 -14.509757 1.614799 -6.253762 0.518579 0.151389 -0.718632 0.000000 0.000000 0.000000 -3.174861 5.102157 -1.688504 -8.838690 -4.865876 -2.301092 16.611995 4.246755 -0.070128 -4.370656 0.149170 1.957192 -0.189102 0.426573 1.848378 0.000000 0.000000 0.000000 -3.282671 6.431969 -1.649021 11.240790 -0.371230 1.363666 2.609463 0.047090 -0.326649 0.343069 -1.862075 0.761387 0.000000 0.000000 0.000000 -4.412546 -0.124409 0.271466 0.112000 -0.918309 0.540517 7.319010 -3.125545 -1.544961 0.000000 0.000000 0.000000 -4.744437 -0.436626 0.245699 0.251437 -3.940896 -7.826548 -1.201045 -0.798790 0.704964 6.484935 -1.313093 -73.502958 5.124849 -8.365098 3.396664 0.000000 0.000000 0.000000 -5.490656 -0.628373 0.413114 0.935033 8.075065 5.840544 -3.994480 -0.802272 -0.051057 4.752772 12.651634 75.726587 16.535468 18.598047 -4.112112 0.000000 0.000000 0.000000 
0.458653 34.321323 -0.523489 0.000000 0.000000 0.000000 -2.951451 4.204374 -1.814889 -7.246825 9.678866 15.249050 21.202572 -6.552375 -1.767613 -14.978350 1.790005 -6.138982 0.769087 0.128903 -0.686916 0.000000 0.000000 0.000000 -2.990469 4.965327 -1.817206 -8.478583 -5.154912 -2.583382 15.877401 4.241407 -0.189704 -4.883977 0.630955 1.654832 -0.404151 0.467377 1.474140 0.000000 0.000000 0.000000 -3.096225 6.053377 -1.647533 11.077389 -0.237703 1.384633 2.623278 0.088509 -0.360804 0.359464 -1.866164 0.635776 0.000000 0.000000 0.000000 -4.265594 -0.078591 0.253787 0.060244 -0.826550 0.442452 7.146652 -3.245974 -1.318095 0.000000 0.000000 0.000000 -4.681975 -0.393966 0.195548 0.327089 -3.885871 -7.617998 -1.325968 -0.890447 0.760730 6.324233 -1.619892 -73.401284 5.162166 -8.507500 3.335151 0.000000 0.000000 0.000000 -5.405493 -0.580600 0.404605 0.949913 7.759576 5.608215 -3.976959 -0.879238 -0.029698 4.621782 13.214672 75.614210 16.671177 19.191454 -4.729906 0.000000 0.000000 0.000000 
0.629549 34.290245 -0.414763 0.000000 0.000000 0.000000 -3.051653 4.234664 -1.869857 -6.986537 9.619482 14.922037 21.372733 -6.206602 -1.941721 -15.507835 1.940836 -5.977902 0.870722 0.098587 -0.589492 0.000000 0.000000 0.000000 -2.887178 4.815165 -1.946541 -7.776543 -5.537207 -3.021538 15.229263 4.252964 -0.157271 -5.669132 1.266115 1.279350 -0.588918 0.537872 0.930737 0.000000 0.000000 0.000000 -3.041950 5.700014 -1.617129 10.908522 -0.079541 1.404020 2.655859 0.147576 -0.384730 0.351340 -1.744237 0.574685 0.000000 0.000000 0.000000 -4.108941 -0.027675 0.251366 -0.026695 -0.730395 0.295036 6.800011 -3.362279 -1.034815 0.000000 0.000000 0.000000 -4.570962 -0.338477 0.163854 0.420789 -3.829474 -7.358696 -1.533549 -1.020912 0.773137 6.192336 -2.086416 -73.288469 5.296293 -8.514351 3.241888 0.000000 0.000000 0.000000 -5.238268 -0.521820 0.387492 1.009183 7.476284 5.330956 -3.975482 -1.023615 -0.058812 4.443187 13.719020 75.535882 16.802776 19.905688 -5.640720 0.000000 0.000000 0.000000 
0.823599 34.239136 -0.228806 0.000000 0.000000 0.000000 -3.206921 4.181271 -1.894390 -6.615534 9.574064 14.551160 21.571846 -5.781023 -2.154133 -16.112855 2.040381 -5.678382 0.694009 0.068276 -0.400316 0.000000 0.000000 0.000000 -2.878771 4.606836 -2.018461 -6.887016 -5.984311 -3.659707 14.732780 4.362423 0.130050 -6.565137 1.922184 1.103990 -0.774752 0.603535 0.341521 0.000000 0.000000 0.000000 -3.102744 5.428648 -1.594544 10.746794 0.067988 1.411820 2.698795 0.208934 -0.373228 0.338273 -1.527317 0.564158 0.000000 0.000000 0.000000 -3.976972 0.013921 0.286154 -0.118358 -0.636075 0.148217 6.355181 -3.473356 -0.722874 0.000000 0.000000 0.000000 -4.435463 -0.283111 0.171260 0.517630 -3.780451 -7.123716 -1.768877 -1.214093 0.725230 6.116294 -2.670473 -73.241806 5.512499 -8.401519 3.132742 0.000000 0.000000 0.000000 -5.028441 -0.466481 0.387460 1.118817 7.250279 5.054619 -3.957940 -1.105425 -0.104503 4.158685 14.030630 75.540472 16.824866 20.569272 -6.693345 0.000000 0.000000 0.000000 
1.015057 34.192051 -0.027681 0.000000 0.000000 0.000000 -3.392594 4.063247 -1.822825 -6.103657 9.476537 14.136099 21.819623 -5.258324 -2.285201 -16.767505 2.104592 -5.140765 0.469342 0.043371 -0.181548 0.000000 0.000000 0.000000 -3.019031 4.377978 -2.015500 -6.061550 -6.354688 -4.449622 14.536420 4.552964 0.641618 -7.371202 2.470884 1.374217 -0.987597 0.647659 -0.192318 0.000000 0.000000 0.000000 -3.243936 5.263728 -1.619225 10.628545 0.172415 1.395458 2.723705 0.259564 -0.314233 0.390693 -1.167870 0.539400 0.000000 0.000000 0.000000 -3.881602 0.036897 0.363720 -0.188523 -0.545397 0.053716 5.868945 -3.575904 -0.394437 0.000000 0.000000 0.000000 -4.310272 -0.238423 0.227315 0.608241 -3.754318 -6.982367 -1.967576 -1.475169 0.641934 6.061764 -3.277179 -73.308482 5.792983 -8.228833 3.011295 0.000000 0.000000 0.000000 -4.817783 -0.420804 0.419579 1.259520 7.105280 4.799837 -3.917962 -1.129800 -0.143528 3.739140 14.059117 75.636729 16.627703 20.980871 -7.713124 0.000000 0.000000 0.000000 
1.197001 34.157314 0.141542 0.000000 0.000000 0.000000 -3.598367 3.842101 -1.723872 -5.341988 9.261292 13.599182 22.068591 -4.725317 -2.241374 -17.458226 2.202438 -4.439254 0.391300 0.040955 0.011977 0.000000 0.000000 0.000000 -3.259229 4.161438 -1.927289 -5.335603 -6.477021 -5.297800 14.591810 4.743214 1.171238 -8.057458 2.812629 2.110003 -1.312904 0.669392 -0.549211 0.000000 0.000000 0.000000 -3.390434 5.200862 -1.677036 10.581052 0.223499 1.337378 2.689455 0.290687 -0.211121 0.442079 -0.763790 0.524107 0.000000 0.000000 0.000000 -3.832140 0.042066 0.475948 -0.243213 -0.460017 0.038155 5.384712 -3.665611 -0.058088 0.000000 0.000000 0.000000 -4.229981 -0.206267 0.333551 0.671416 -3.749222 -6.925774 -2.016511 -1.712853 0.552453 5.970427 -3.810398 -73.476696 6.123893 -8.060432 2.851498 0.000000 0.000000 0.000000 -4.660116 -0.389440 0.486555 1.399837 7.033978 4.596816 -3.813310 -1.123337 -0.128731 3.188643 13.837225 75.802402 16.176678 20.995861 -8.576900 0.000000 0.000000 0.000000 
1.373939 34.135689 0.276280 0.000000 0.000000 0.000000 -3.802902 3.640241 -1.640846 -4.453258 8.942338 12.974355 22.272274 -4.273952 -2.011905 -18.150237 2.396997 -3.732420 0.495720 0.077874 0.167420 0.000000 0.000000 0.000000 -3.586962 3.969819 -1.811483 -4.855734 -6.226042 -6.015145 14.853932 4.777636 1.489490 -8.833862 2.890802 3.039220 -1.516735 0.677295 -0.644286 0.000000 0.000000 0.000000 -3.518311 5.197479 -1.750070 10.671483 0.234034 1.243696 2.572736 0.301434 -0.073662 0.381609 -0.429292 0.512645 0.000000 0.000000 0.000000 -3.833318 0.038609 0.600519 -0.293964 -0.378439 0.112927 4.917330 -3.688368 0.265164 0.000000 0.000000 0.000000 -4.215560 -0.187595 0.481476 0.692818 -3.759471 -6.920752 -1.999625 -1.931147 0.454063 5.819611 -4.226283 -73.658857 6.499997 -7.912721 2.639784 0.000000 0.000000 0.000000 -4.589976 -0.371220 0.580948 1.513557 7.023017 4.455764 -3.589487 -1.142282 -0.043670 2.585738 13.528201 75.965473 15.497568 20.615376 -9.203104 0.000000 0.000000 0.000000 
1.552510 34.108974 0.392476 0.000000 0.000000 0.000000 -3.983018 3.503348 -1.597158 -3.607131 8.690730 12.311693 22.407563 -3.989176 -1.651456 -18.798007 2.646276 -3.163554 0.659824 0.139550 0.266696 0.000000 0.000000 0.000000 -3.894716 3.872456 -1.740264 -4.853528 -5.567525 -6.539416 15.601523 4.485614 1.534045 -9.501714 2.724228 3.667749 -1.674818 0.752623 -0.487305 0.000000 0.000000 0.000000 -3.658186 5.239449 -1.821660 10.955676 0.189089 1.135803 2.381684 0.287226 0.088171 0.238412 -0.232759 0.526553 0.000000 0.000000 0.000000 -3.881671 0.025374 0.723038 -0.367462 -0.318085 0.248487 4.428953 -3.637791 0.551808 0.000000 0.000000 0.000000 -4.261773 -0.184940 0.661700 0.666079 -3.799205 -6.923877 -2.050503 -1.987307 0.355240 5.651123 -4.586200 -73.769704 6.912040 -7.751667 2.352773 0.000000 0.000000 0.000000 -4.597549 -0.369013 0.691311 1.596534 7.028417 4.340643 -3.282584 -1.112759 0.068665 2.008003 13.250278 76.058617 14.675949 20.048388 -9.551826 0.000000 0.000000 0.000000 
1.757672 34.074158 0.498949 0.000000 0.000000 0.000000 -4.112094 3.412106 -1.621724 -2.854345 8.632808 11.689538 22.527050 -3.936589 -1.279448 -19.490573 2.849527 -2.778374 0.675763 0.210589 0.323241 0.000000 0.000000 0.000000 -4.101783 4.009353 -1.716506 -5.513946 -4.615338 -6.889115 17.178626 3.879190 1.276754 -9.728575 2.452262 3.898273 -2.276561 0.939660 -0.174258 0.000000 0.000000 0.000000 -3.809360 5.325049 -1.886978 11.456147 0.086245 1.016825 2.141508 0.246897 0.276886 0.129730 -0.200119 0.534656 0.000000 0.000000 0.000000 -3.955877 -0.006726 0.853558 -0.481538 -0.278891 0.408534 3.829618 -3.534856 0.787044 0.000000 0.000000 0.000000 -4.341013 -0.207081 0.871584 0.602456 -3.851142 -6.930145 -2.130975 -1.799820 0.200512 5.466429 -4.970940 -73.766562 7.334251 -7.477518 1.973563 0.000000 0.000000 0.000000 -4.655364 -0.395373 0.815533 1.667836 7.007734 4.240589 -2.937106 -0.939348 0.130626 1.485490 13.064366 76.068910 13.826395 19.560823 -9.614138 0.000000 0.000000 0.000000 
